<svg width="94" height="94" viewBox="0 0 94 94" fill="none" xmlns="http://www.w3.org/2000/svg">
<path d="M61.1 61.101V65.9185C61.1 67.2501 61.5512 68.3468 62.4536 69.2085C63.3529 70.0701 64.4683 70.501 65.8 70.501C67.1317 70.501 68.2471 70.0498 69.1464 69.1474C70.0488 68.2481 70.5 67.1326 70.5 65.801V61.101H75.3175C76.6492 61.101 77.7458 60.6498 78.6075 59.7474C79.4692 58.8481 79.9 57.7326 79.9 56.401C79.9 55.0693 79.4488 53.9523 78.5464 53.0499C77.6471 52.1506 76.5317 51.701 75.2 51.701H70.5V46.8835C70.5 45.5518 70.0488 44.4551 69.1464 43.5935C68.2471 42.7318 67.1317 42.301 65.8 42.301C64.4683 42.301 63.3529 42.7506 62.4536 43.6499C61.5512 44.5523 61.1 45.6693 61.1 47.001V51.701H56.2825C54.9508 51.701 53.8542 52.1506 52.9925 53.0499C52.1308 53.9523 51.7 55.0693 51.7 56.401C51.7 57.7326 52.1512 58.8481 53.0536 59.7474C53.9529 60.6498 55.0683 61.101 56.4 61.101H61.1ZM28.2 47.001H51.8175C53.1492 47.001 54.2458 46.5498 55.1075 45.6474C55.9692 44.7481 56.4 43.6326 56.4 42.301C56.4 40.9693 55.9504 39.8523 55.0511 38.9499C54.1487 38.0506 53.0317 37.601 51.7 37.601H28.0825C26.7508 37.601 25.6542 38.0506 24.7925 38.9499C23.9308 39.8523 23.5 40.9693 23.5 42.301C23.5 43.6326 23.9496 44.7481 24.8489 45.6474C25.7513 46.5498 26.8683 47.001 28.2 47.001ZM28.2 32.901H51.8175C53.1492 32.901 54.2458 32.4498 55.1075 31.5474C55.9692 30.6481 56.4 29.5326 56.4 28.201C56.4 26.8693 55.9504 25.7523 55.0511 24.8499C54.1487 23.9506 53.0317 23.501 51.7 23.501H28.0825C26.7508 23.501 25.6542 23.9506 24.7925 24.8499C23.9308 25.7523 23.5 26.8693 23.5 28.201C23.5 29.5326 23.9496 30.6481 24.8489 31.5474C25.7513 32.4498 26.8683 32.901 28.2 32.901ZM28.2 61.101H33.0175C34.3492 61.101 35.4458 60.6498 36.3075 59.7474C37.1692 58.8481 37.6 57.7326 37.6 56.401C37.6 55.0693 37.1504 53.9523 36.2511 53.0499C35.3487 52.1506 34.2317 51.701 32.9 51.701H28.0825C26.7508 51.701 25.6542 52.1506 24.7925 53.0499C23.9308 53.9523 23.5 55.0693 23.5 56.401C23.5 57.7326 23.9496 58.8481 24.8489 59.7474C25.7513 60.6498 26.8683 61.101 28.2 61.101ZM47 94.001C40.4983 94.001 34.3883 92.7664 28.67 90.2974C22.9517 87.8314 17.9775 84.4835 13.7475 80.2535C9.5175 76.0235 6.16953 71.0493 3.7036 65.331C1.23453 59.6126 0 53.5026 0 47.001C0 40.4993 1.23453 34.3893 3.7036 28.671C6.16953 22.9526 9.5175 17.9785 13.7475 13.7485C17.9775 9.51848 22.9517 6.16894 28.67 3.69988C34.3883 1.23394 40.4983 0.000976562 47 0.000976562C53.5017 0.000976562 59.6117 1.23394 65.33 3.69988C71.0483 6.16894 76.0225 9.51848 80.2525 13.7485C84.4825 17.9785 87.8305 22.9526 90.2964 28.671C92.7655 34.3893 94 40.4993 94 47.001C94 53.5026 92.7655 59.6126 90.2964 65.331C87.8305 71.0493 84.4825 76.0235 80.2525 80.2535C76.0225 84.4835 71.0483 87.8314 65.33 90.2974C59.6117 92.7664 53.5017 94.001 47 94.001Z" fill="#AE8BE6"/>
</svg>
